<svg width="72" height="30" viewBox="0 0 72 30" fill="none" xmlns="http://www.w3.org/2000/svg">
<path d="M18.9534 19.3089C18.8759 19.1889 18.7497 19.1089 18.6082 19.0898C16.7458 18.8465 15.4332 17.1395 15.6764 15.2771C15.8483 13.9616 16.7695 12.8661 18.036 12.471C18.2932 12.3886 18.4349 12.1132 18.3525 11.856C18.3397 11.816 18.3217 11.7778 18.2991 11.7423C17.4445 10.1999 15.9249 9.13906 14.1823 8.86865C13.3043 8.91056 12.4389 9.09592 11.6207 9.41736C11.0331 9.65385 10.4126 9.79868 9.78093 9.84673C9.14927 9.79868 8.52877 9.65385 7.94113 9.41736C7.12292 9.09592 6.25759 8.91056 5.3795 8.86865C3.55342 8.86865 0 11.4577 0 16.2044C0 20.7153 3.29029 26.4743 5.86856 26.4743C6.85233 26.4831 7.82426 26.2593 8.70505 25.821C9.03676 25.638 9.40341 25.5273 9.78097 25.4962C10.1585 25.5273 10.5252 25.638 10.8569 25.821C11.7377 26.2593 12.7096 26.4831 13.6934 26.4743C15.7376 26.4743 18.0449 22.9649 19.0113 19.7128C19.0517 19.5762 19.0306 19.4287 18.9534 19.3089Z" fill="#4D6176" fill-opacity="0.3"/>
<path d="M9.29175 8.86856C12.2614 8.86531 14.668 6.45874 14.6713 3.48906C14.6713 3.21897 14.4523 3 14.1822 3C11.2126 3.00326 8.80594 5.40982 8.80273 8.3795C8.80269 8.64959 9.02166 8.86856 9.29175 8.86856Z" fill="#4D6176" fill-opacity="0.3"/>
<path d="M33.48 7.2C35.816 7.2 37.608 7.648 38.856 8.544C40.12 9.424 40.752 10.744 40.752 12.504C40.752 13.464 40.576 14.288 40.224 14.976C39.888 15.648 39.392 16.2 38.736 16.632C38.096 17.048 37.312 17.352 36.384 17.544C35.456 17.736 34.408 17.832 33.24 17.832H31.392V24H29.064V7.608C29.72 7.448 30.448 7.344 31.248 7.296C32.064 7.232 32.808 7.2 33.48 7.2ZM33.672 9.24C32.68 9.24 31.92 9.264 31.392 9.312V15.84H33.144C33.944 15.84 34.664 15.792 35.304 15.696C35.944 15.584 36.48 15.408 36.912 15.168C37.36 14.912 37.704 14.568 37.944 14.136C38.184 13.704 38.304 13.152 38.304 12.48C38.304 11.84 38.176 11.312 37.92 10.896C37.68 10.48 37.344 10.152 36.912 9.912C36.496 9.656 36.008 9.48 35.448 9.384C34.888 9.288 34.296 9.24 33.672 9.24ZM47.0603 22.392C47.5883 22.392 48.0523 22.384 48.4523 22.368C48.8683 22.336 49.2123 22.288 49.4843 22.224V18.504C49.3243 18.424 49.0603 18.36 48.6923 18.312C48.3403 18.248 47.9083 18.216 47.3963 18.216C47.0603 18.216 46.7003 18.24 46.3163 18.288C45.9483 18.336 45.6043 18.44 45.2843 18.6C44.9803 18.744 44.7243 18.952 44.5163 19.224C44.3083 19.48 44.2043 19.824 44.2043 20.256C44.2043 21.056 44.4603 21.616 44.9723 21.936C45.4843 22.24 46.1803 22.392 47.0603 22.392ZM46.8683 11.208C47.7643 11.208 48.5163 11.328 49.1243 11.568C49.7483 11.792 50.2443 12.12 50.6123 12.552C50.9963 12.968 51.2683 13.472 51.4283 14.064C51.5883 14.64 51.6683 15.28 51.6683 15.984V23.784C51.4763 23.816 51.2043 23.864 50.8523 23.928C50.5163 23.976 50.1323 24.024 49.7003 24.072C49.2683 24.12 48.7963 24.16 48.2843 24.192C47.7883 24.24 47.2923 24.264 46.7963 24.264C46.0923 24.264 45.4443 24.192 44.8523 24.048C44.2603 23.904 43.7483 23.68 43.3163 23.376C42.8843 23.056 42.5483 22.64 42.3083 22.128C42.0683 21.616 41.9483 21 41.9483 20.28C41.9483 19.592 42.0843 19 42.3563 18.504C42.6443 18.008 43.0283 17.608 43.5083 17.304C43.9883 17 44.5483 16.776 45.1883 16.632C45.8283 16.488 46.5003 16.416 47.2043 16.416C47.4283 16.416 47.6603 16.432 47.9003 16.464C48.1403 16.48 48.3643 16.512 48.5723 16.56C48.7963 16.592 48.9883 16.624 49.1483 16.656C49.3083 16.688 49.4203 16.712 49.4843 16.728V16.104C49.4843 15.736 49.4443 15.376 49.3643 15.024C49.2843 14.656 49.1403 14.336 48.9323 14.064C48.7243 13.776 48.4363 13.552 48.0683 13.392C47.7163 13.216 47.2523 13.128 46.6763 13.128C45.9403 13.128 45.2923 13.184 44.7323 13.296C44.1883 13.392 43.7803 13.496 43.5083 13.608L43.2443 11.76C43.5323 11.632 44.0123 11.512 44.6843 11.4C45.3563 11.272 46.0843 11.208 46.8683 11.208ZM53.3198 26.328C53.4958 26.408 53.7198 26.48 53.9918 26.544C54.2798 26.624 54.5598 26.664 54.8318 26.664C55.7118 26.664 56.3998 26.464 56.8958 26.064C57.3918 25.68 57.8398 25.048 58.2398 24.168C57.2318 22.248 56.2878 20.216 55.4078 18.072C54.5438 15.912 53.8238 13.728 53.2478 11.52H55.6478C55.8238 12.24 56.0318 13.016 56.2718 13.848C56.5278 14.68 56.8078 15.536 57.1118 16.416C57.4158 17.296 57.7438 18.176 58.0958 19.056C58.4478 19.936 58.8158 20.784 59.1998 21.6C59.8078 19.92 60.3358 18.256 60.7838 16.608C61.2318 14.96 61.6558 13.264 62.0558 11.52H64.3598C63.7838 13.872 63.1438 16.136 62.4398 18.312C61.7358 20.472 60.9758 22.496 60.1598 24.384C59.8398 25.104 59.5038 25.72 59.1518 26.232C58.8158 26.76 58.4398 27.192 58.0238 27.528C57.6078 27.864 57.1358 28.112 56.6078 28.272C56.0958 28.432 55.5118 28.512 54.8558 28.512C54.6798 28.512 54.4958 28.496 54.3038 28.464C54.1118 28.448 53.9198 28.416 53.7278 28.368C53.5518 28.336 53.3838 28.296 53.2238 28.248C53.0798 28.2 52.9758 28.16 52.9118 28.128L53.3198 26.328Z" fill="#4D6176" fill-opacity="0.3"/>
</svg>
