<svg width="29" height="27" viewBox="0 0 29 27" fill="none" xmlns="http://www.w3.org/2000/svg">
<path d="M26.65 6H20.8V3.22222C20.7985 1.99544 19.7921 1.00152 18.55 1H10.45C9.2079 1.00152 8.20153 1.99544 8.19998 3.22222V6H2.35C1.60447 6 1 6.597 1 7.33333V17.2266C1.00285 17.7904 1.36255 18.2919 1.9 18.4813V24.6667C1.9 25.403 2.50447 26 3.25 26H25.75C26.4955 26 27.1 25.403 27.1 24.6667V18.4818C27.6374 18.2921 27.9973 17.7904 28 17.2266V7.33333C28 6.597 27.3955 6 26.65 6ZM9.1 3.22222C9.1 2.48589 9.70446 1.88889 10.45 1.88889H18.55C19.2955 1.88889 19.9 2.48589 19.9 3.22222V6H19C18.3571 6 18.3485 6 18.1 6H10.9C10.45 6 10.4018 6 10 6H9.1V3.22222ZM26.2 24.6667C26.2 24.9121 25.9985 25.1111 25.75 25.1111H3.25C3.00149 25.1111 2.8 24.9121 2.8 24.6667V18.6341L12.7 19.9826V20.1111C12.7 20.8474 13.3045 21.4444 14.05 21.4444H14.95C15.6955 21.4444 16.3 20.8474 16.3 20.1111V19.9826L26.2 18.6341V24.6667ZM15.4 20.1111C15.4 20.3566 15.1985 20.5556 14.95 20.5556H14.05C13.8015 20.5556 13.6 20.3566 13.6 20.1111V18.4444C13.6 18.199 13.8015 18 14.05 18H14.95C15.1985 18 15.4 18.199 15.4 18.4444V20.1111ZM27.1 17.2266C27.1002 17.4481 26.9352 17.636 26.7131 17.6671L26.5882 17.684L16.3 19.0853V18.4444C16.3 17.7081 15.6955 17.1111 14.95 17.1111H14.05C13.3045 17.1111 12.7 17.7081 12.7 18.4444V19.0853L2.28738 17.6671C2.06523 17.6363 1.89978 17.4483 1.9 17.2266V7.33333C1.9 7.0879 2.10149 6.8889 2.35 6.8889H26.65C26.8985 6.8889 27.1 7.0879 27.1 7.33333V17.2266Z" fill="white" stroke="white" stroke-width="1.2"/>
</svg>
