<svg width="38" height="21" viewBox="0 0 38 21" fill="none" xmlns="http://www.w3.org/2000/svg">
<path d="M35.4108 8.35658L27.9221 7.10822L25.0782 2.84234C24.9537 2.6576 24.4744 1.97368 24 1.64191C23.579 1.34748 23.1618 1.38371 23 1.49278C22.8219 1.61179 22.5 2.00195 23 2.5C23.5 3 23.7065 3.51209 23.8194 3.68153L26.0611 7.04404H9.22087L10.8998 4.52512C11.1377 4.16757 11.5188 3.92824 11.9443 3.86768L21.6644 2.48674C22.4835 2.35853 22.5123 2.42176 23 2.5C23.5 2.50195 24.442 2.03739 24 1.64191C23.558 1.24643 22.9382 1.06816 22.5 1.00066C22.198 0.954129 21.4819 0.976795 21.3168 1L11.7316 2.36956C10.8791 2.49068 10.1183 2.97083 9.64111 3.68663L7.34032 7.13793L2.71966 8.29304C1.70765 8.54571 1 9.45127 1 10.4943V14.2949C1 15.1865 1.34719 16.0249 1.97804 16.6557C2.60002 17.2769 3.45985 17.6338 4.3389 17.6338H6.37135C6.7228 19.358 8.25 20.6595 10.0769 20.6595C11.9039 20.6595 13.4311 19.358 13.7825 17.6338H23.7688C24.1203 19.358 25.6474 20.6595 27.4744 20.6595C29.3013 20.6595 30.8285 19.358 31.18 17.6338H34.5702C35.1478 17.6338 35.6663 17.314 35.9249 16.7976L37.1481 14.3496C37.1747 14.2964 37.1954 14.2402 37.2087 14.1826L37.2885 13.8443C37.3018 13.7881 37.3077 13.7306 37.3077 13.6729V10.5948C37.3078 9.48013 36.51 8.53904 35.4108 8.35658ZM10.0769 19.1465C8.8256 19.1465 7.80771 18.1286 7.80771 16.8773C7.80771 15.6259 8.8256 14.608 10.0769 14.608C11.3283 14.608 12.3462 15.6259 12.3462 16.8773C12.3462 18.1286 11.3283 19.1465 10.0769 19.1465ZM27.4744 19.1465C26.2231 19.1465 25.2052 18.1286 25.2052 16.8773C25.2052 15.6259 26.2231 14.608 27.4744 14.608C28.7257 14.608 29.7436 15.6259 29.7436 16.8773C29.7436 18.1286 28.7257 19.1465 27.4744 19.1465ZM35.795 13.585L34.5702 16.1208H31.1801C30.8286 14.3966 29.3014 13.0952 27.4745 13.0952C25.6475 13.0952 24.1203 14.3966 23.7689 16.1208H13.7825C13.4311 14.3966 11.9039 13.0952 10.0769 13.0952C8.25 13.0952 6.7228 14.3966 6.37135 16.1208H4.33883C3.85867 16.1208 3.38738 15.9258 3.04763 15.586C2.70342 15.241 2.5128 14.7823 2.5128 14.2948V10.4943C2.5128 10.1464 2.74916 9.84499 3.086 9.76003L7.90075 8.5567H27.4123L35.1626 9.84874C35.529 9.9093 35.795 10.2232 35.795 10.5948V13.585Z" fill="white"/>
<path d="M23 1.49278C22.8219 1.61179 22.5 2.00195 23 2.5M23 1.49278V2.5M23 1.49278C23.1618 1.38371 23.579 1.34748 24 1.64191M24 1.64191C24.4744 1.97368 24.9537 2.6576 25.0782 2.84234L27.9221 7.10822L35.4108 8.35658C36.51 8.53904 37.3078 9.48013 37.3077 10.5948V13.6729C37.3077 13.7306 37.3018 13.7881 37.2885 13.8443L37.2087 14.1826C37.1954 14.2402 37.1747 14.2964 37.1481 14.3496L35.9249 16.7976C35.6663 17.314 35.1478 17.6338 34.5702 17.6338H31.18C30.8285 19.358 29.3013 20.6595 27.4744 20.6595C25.6474 20.6595 24.1203 19.358 23.7688 17.6338H13.7825C13.4311 19.358 11.9039 20.6595 10.0769 20.6595C8.25 20.6595 6.7228 19.358 6.37135 17.6338H4.3389C3.45985 17.6338 2.60002 17.2769 1.97804 16.6557C1.34719 16.0249 1 15.1865 1 14.2949V10.4943C1 9.45127 1.70765 8.54571 2.71966 8.29304L7.34032 7.13793L9.64111 3.68663C10.1183 2.97083 10.8791 2.49068 11.7316 2.36956L21.3168 1C21.4819 0.976795 22.198 0.954129 22.5 1.00066C22.9382 1.06816 23.558 1.24643 24 1.64191ZM24 1.64191C24.442 2.03739 23.5 2.50195 23 2.5M23 2.5C23.5 3 23.7065 3.5121 23.8194 3.68153L26.0611 7.04404H9.22087L10.8998 4.52512C11.1377 4.16757 11.5188 3.92824 11.9443 3.86768L21.6644 2.48674C22.4835 2.35853 22.5123 2.42176 23 2.5ZM10.0769 19.1465C8.8256 19.1465 7.80771 18.1286 7.80771 16.8773C7.80771 15.6259 8.8256 14.608 10.0769 14.608C11.3283 14.608 12.3462 15.6259 12.3462 16.8773C12.3462 18.1286 11.3283 19.1465 10.0769 19.1465ZM27.4744 19.1465C26.2231 19.1465 25.2052 18.1286 25.2052 16.8773C25.2052 15.6259 26.2231 14.608 27.4744 14.608C28.7257 14.608 29.7436 15.6259 29.7436 16.8773C29.7436 18.1286 28.7257 19.1465 27.4744 19.1465ZM35.795 13.585L34.5702 16.1208H31.1801C30.8286 14.3966 29.3014 13.0952 27.4745 13.0952C25.6475 13.0952 24.1203 14.3966 23.7689 16.1208H13.7825C13.4311 14.3966 11.9039 13.0952 10.0769 13.0952C8.25 13.0952 6.7228 14.3966 6.37135 16.1208H4.33883C3.85867 16.1208 3.38738 15.9258 3.04763 15.586C2.70342 15.241 2.5128 14.7823 2.5128 14.2948V10.4943C2.5128 10.1464 2.74916 9.84499 3.086 9.76003L7.90075 8.5567H27.4123L35.1626 9.84874C35.529 9.9093 35.795 10.2232 35.795 10.5948V13.585Z" stroke="white" stroke-width="0.5"/>
</svg>
