<svg width="31" height="26" viewBox="0 0 31 26" fill="none" xmlns="http://www.w3.org/2000/svg">
<path d="M13.8772 1L9.38733 7.72L15.3078 24.04" stroke="white" stroke-width="2"/>
<path d="M16.9848 1L20.7346 7.72L15.8009 24.52" stroke="white" stroke-width="2"/>
<path d="M6.56569 1.34248L1.56176 7.0763C1.23825 7.447 1.23246 7.99795 1.54811 8.37537L12.2404 21.16L14.7839 24.0866C15.1957 24.5605 15.9373 24.5421 16.3251 24.0484L18.5937 21.16L29.0666 8.38917C29.3817 8.005 29.3669 7.44779 29.0319 7.08086L23.7783 1.3258C23.5888 1.11825 23.3207 1 23.0397 1H7.31912C7.03031 1 6.75559 1.12487 6.56569 1.34248Z" stroke="white" stroke-width="2"/>
<path d="M1 7.71973L29.6154 7.71972" stroke="white" stroke-width="2"/>
</svg>
