<svg width="34" height="34" viewBox="0 0 34 34" fill="none" xmlns="http://www.w3.org/2000/svg">
<path d="M33.7839 16.3389C33.4802 15.9234 26.243 6.16504 16.9998 6.16504C7.75666 6.16504 0.519165 15.9234 0.215754 16.3385C-0.0719181 16.7327 -0.0719181 17.2673 0.215754 17.6615C0.519165 18.077 7.75666 27.8354 16.9998 27.8354C26.243 27.8354 33.4802 18.077 33.7839 17.6618C34.072 17.2677 34.072 16.7327 33.7839 16.3389ZM16.9998 25.5936C10.1913 25.5936 4.2943 19.1168 2.54868 16.9994C4.29204 14.8802 10.1766 8.40679 16.9998 8.40679C23.8081 8.40679 29.7046 14.8825 31.451 17.001C29.7076 19.1201 23.823 25.5936 16.9998 25.5936Z" fill="white"/>
<path d="M16.9998 10.2744C13.2916 10.2744 10.2745 13.2915 10.2745 16.9997C10.2745 20.708 13.2916 23.725 16.9998 23.725C20.7081 23.725 23.7251 20.708 23.7251 16.9997C23.7251 13.2915 20.7081 10.2744 16.9998 10.2744ZM16.9998 21.4832C14.5275 21.4832 12.5163 19.472 12.5163 16.9997C12.5163 14.5275 14.5276 12.5162 16.9998 12.5162C19.4721 12.5162 21.4833 14.5275 21.4833 16.9997C21.4833 19.472 19.4722 21.4832 16.9998 21.4832Z" fill="white"/>
</svg>
