<svg width="28" height="24" viewBox="0 0 28 24" fill="none" xmlns="http://www.w3.org/2000/svg">
<path d="M27.6105 10.2079L14.61 0.20757C14.2504 -0.06919 13.7496 -0.06919 13.39 0.20757L0.38952 10.2079C-0.0478704 10.5451 -0.129123 11.1731 0.208014 11.6105C0.397271 11.856 0.689531 11.9999 0.999542 12H3.99965V23.0004C3.99965 23.5527 4.44741 24.0004 4.99968 24.0004H23.0003C23.5526 24.0004 24.0004 23.5527 24.0004 23.0004V12H27.0005C27.5527 11.9997 28.0002 11.5517 28 10.9995C27.9999 10.6894 27.856 10.3972 27.6105 10.2079ZM16.0001 22.0003H11.9999V16.0001H16.0001V22.0003ZM23.0003 9.99992C22.4481 9.99992 22.0003 10.4477 22.0003 11V22.0003H18.0001V15.0001C18.0001 14.4478 17.5524 14.0001 17.0001 14.0001H10.9999C10.4476 14.0001 9.99986 14.4478 9.99986 15.0001V22.0003H5.99972V11C5.99972 10.4477 5.55195 9.99992 4.99968 9.99992H3.93965L14 2.26164L24.0604 9.99992H23.0003Z" fill="white"/>
</svg>
