<svg width="21" height="17" viewBox="0 0 21 17" fill="none" xmlns="http://www.w3.org/2000/svg">
<path d="M8.05322 0.676877C8.44126 0.299916 9.05874 0.299917 9.44679 0.676878L9.55447 0.781487C9.95851 1.17398 9.9588 1.82257 9.55511 2.21542L4.18906 7.4375H20C20.5523 7.4375 21 7.88522 21 8.4375V8.5625C21 9.11479 20.5523 9.5625 20 9.5625H4.18906L9.55511 14.7846C9.9588 15.1774 9.95851 15.826 9.55447 16.2185L9.44679 16.3231C9.05874 16.7001 8.44126 16.7001 8.05321 16.3231L0.738375 9.21728C0.334089 8.82454 0.334091 8.17546 0.738377 7.78272L8.05322 0.676877Z" fill="white"/>
</svg>
