<svg width="30" height="23" viewBox="0 0 30 23" fill="none" xmlns="http://www.w3.org/2000/svg">
<path d="M15.6716 14.8997L27.1 4.99511V19.375C27.1 19.7749 26.7749 20.1 26.375 20.1H3.62502C3.22507 20.1 2.89999 19.7749 2.89999 19.375V4.99511L14.3284 14.8997L14.3285 14.8998C14.5216 15.0669 14.761 15.15 15 15.15C15.239 15.15 15.4784 15.0669 15.6715 14.8998L15.6716 14.8997ZM26.375 0.85H3.62502C2.09465 0.85 0.85 2.09465 0.85 3.62502V19.375C0.85 20.9054 2.09465 22.15 3.62502 22.15H26.375C27.9053 22.15 29.15 20.9054 29.15 19.375V3.62502C29.15 2.09465 27.9053 0.85 26.375 0.85ZM26.375 2.89999C26.3788 2.89999 26.3825 2.90002 26.3863 2.90008L15 12.7687L3.61363 2.90008C3.6174 2.90002 3.62117 2.89999 3.62496 2.89999H26.375Z" fill="white" stroke="white" stroke-width="0.3"/>
</svg>
