<svg width="59" height="19" viewBox="0 0 59 19" fill="none" xmlns="http://www.w3.org/2000/svg">
<path d="M23.624 0.838867L20.6255 18.435H25.4211L28.422 0.838867H23.624Z" fill="#4D6176" fill-opacity="0.3"/>
<path d="M16.6046 0.858681L11.9077 12.8587L11.4069 11.0468C10.4806 8.86363 7.85094 5.72825 4.76367 3.7523L9.05847 18.4264L14.1328 18.4178L21.6851 0.85498L16.6046 0.858681Z" fill="#4D6176" fill-opacity="0.3"/>
<path d="M9.5862 2.11851C9.30745 1.04666 8.49955 0.727201 7.49678 0.688965H0.0616714L0 1.03926C5.78601 2.4429 9.61457 5.82496 11.2032 9.89157L9.5862 2.11851Z" fill="#4D6176" fill-opacity="0.3"/>
<path d="M38.1409 4.21272C39.7098 4.18806 40.8471 4.53095 41.7302 4.88618L42.1631 5.08969L42.8119 1.27593C41.8622 0.919471 40.3734 0.537109 38.5159 0.537109C33.7771 0.537109 30.4369 2.92379 30.411 6.34409C30.3802 8.87138 32.7903 10.2824 34.6109 11.1249C36.4795 11.9883 37.1061 12.5371 37.0974 13.308C37.0826 14.4859 35.6075 15.0262 34.2297 15.0262C32.3093 15.0262 31.2892 14.761 29.7141 14.1048L29.0962 13.8236L28.4215 17.7619C29.5439 18.2541 31.6149 18.6771 33.7647 18.6993C38.8057 18.6993 42.0817 16.341 42.1163 12.6864C42.1372 10.687 40.8582 9.16124 38.0867 7.90931C36.4092 7.09278 35.383 6.55007 35.3928 5.72614C35.3928 4.99472 36.2636 4.21272 38.1409 4.21272Z" fill="#4D6176" fill-opacity="0.3"/>
<path d="M55.1196 0.859375H51.4144C50.2636 0.859375 49.4076 1.17267 48.9019 2.31975L41.7813 18.4456H46.8174C46.8174 18.4456 47.6389 16.2772 47.8251 15.8024C48.3764 15.8024 53.2695 15.8098 53.9663 15.8098C54.1094 16.424 54.551 18.4456 54.551 18.4456H59L55.1196 0.859375ZM49.2053 12.2007C49.6 11.1906 51.1159 7.28307 51.1159 7.28307C51.09 7.33117 51.5069 6.26549 51.7548 5.60314L52.078 7.12026C52.078 7.12026 52.9969 11.3213 53.1893 12.2007H49.2053Z" fill="#4D6176" fill-opacity="0.3"/>
</svg>
