<svg width="19" height="11" viewBox="0 0 19 11" fill="none" xmlns="http://www.w3.org/2000/svg">
<path d="M18.8306 9.66945C18.7796 9.58394 18.4637 8.89751 16.9436 7.48666C15.3522 6.0093 15.566 6.24919 17.4827 3.69469C18.6501 2.13895 19.1169 1.18888 18.9708 0.782721C18.8318 0.395568 17.9732 0.4977 17.9732 0.4977L15.1183 0.514326C15.1183 0.514326 14.9069 0.485824 14.7489 0.579644C14.5957 0.672276 14.4971 0.886041 14.4971 0.886041C14.4971 0.886041 14.0447 2.09026 13.4414 3.11396C12.1695 5.27418 11.66 5.38819 11.4522 5.25399C10.9688 4.94166 11.09 3.99752 11.09 3.32772C11.09 1.23401 11.407 0.361127 10.4712 0.135486C10.1601 0.0606676 9.93206 0.0107889 9.13756 0.00247578C8.11861 -0.00821251 7.25524 0.00603854 6.76714 0.244744C6.44174 0.403881 6.19116 0.75897 6.34436 0.779159C6.53318 0.804098 6.96071 0.894355 7.18754 1.20313C7.48088 1.60097 7.47019 2.49641 7.47019 2.49641C7.47019 2.49641 7.63883 4.96066 7.0771 5.26706C6.69113 5.47726 6.16265 5.04854 5.02851 3.08783C4.44778 2.08432 4.00837 0.973923 4.00837 0.973923C4.00837 0.973923 3.92405 0.767283 3.77323 0.656837C3.59034 0.52264 3.33382 0.479887 3.33382 0.479887L0.618998 0.496513C0.618998 0.496513 0.211656 0.508389 0.0620197 0.685339C-0.0709901 0.843289 0.0513314 1.16869 0.0513314 1.16869C0.0513314 1.16869 2.17711 6.14112 4.58316 8.64812C6.79089 10.9461 9.2967 10.7953 9.2967 10.7953H10.432C10.432 10.7953 10.7752 10.7573 10.9498 10.5684C11.1113 10.3951 11.1054 10.0697 11.1054 10.0697C11.1054 10.0697 11.0828 8.54599 11.7906 8.32153C12.4877 8.10064 13.3832 9.79414 14.3321 10.4461C15.0494 10.939 15.5945 10.8309 15.5945 10.8309L18.1323 10.7953C18.1323 10.7953 19.4601 10.7133 18.8306 9.66945Z" fill="#4D6176" fill-opacity="0.5"/>
</svg>
