<svg width="20" height="14" viewBox="0 0 20 14" fill="none" xmlns="http://www.w3.org/2000/svg">
<path d="M18.9789 2.31398C18.7628 1.51072 18.1295 0.877518 17.3263 0.661224C15.8591 0.259766 9.99 0.259766 9.99 0.259766C9.99 0.259766 4.12113 0.259766 2.65388 0.646004C1.86619 0.862068 1.21742 1.51083 1.00136 2.31398C0.615234 3.78111 0.615234 6.82375 0.615234 6.82375C0.615234 6.82375 0.615234 9.88173 1.00136 11.3335C1.21765 12.1367 1.85074 12.7699 2.654 12.9862C4.13658 13.3877 9.99023 13.3877 9.99023 13.3877C9.99023 13.3877 15.8591 13.3877 17.3263 13.0015C18.1296 12.7853 18.7628 12.1521 18.9791 11.349C19.3651 9.88173 19.3651 6.8392 19.3651 6.8392C19.3651 6.8392 19.3806 3.78111 18.9789 2.31398ZM8.12141 9.63465V4.01286L13.0019 6.82375L8.12141 9.63465Z" fill="#4D6176" fill-opacity="0.5"/>
</svg>
